Motion_mu04
version=1
nRows=6
nColumns=43
inDegrees=yes
endheader
time	pelvis_tilt	pelvis_list	pelvis_rotation	pelvis_tx	pelvis_ty	pelvis_tz	hip_flexion_r	hip_adduction_r	hip_rotation_r	knee_angle_r	ankle_angle_r	subtalar_angle_r	mtp_angle_r	hip_flexion_l	hip_adduction_l	hip_rotation_l	knee_angle_l	ankle_angle_l	subtalar_angle_l	mtp_angle_l	lumbar_extension	lumbar_bending	lumbar_rotation	neck_flexion	neck_lateral_bending	neck_rotation	arm_flex_r	arm_add_r	arm_rot_r	elbow_flex_r	pro_sup_r	wrist_flex_r	wrist_dev_r	hand_finger_flex_r	arm_flex_l	arm_add_l	arm_rot_l	elbow_flex_l	pro_sup_l	wrist_flex_l	wrist_dev_l	hand_finger_flex_l
      3.48500000	     -0.38075896	      4.18896812	    -85.59737904	     -0.02336916	      1.78653660	      0.94548670	     12.38008079	     -3.51294040	    -17.89358405	    -10.91447456	    -22.29251976	      7.14425779	      3.23452290	     17.53294494	     -3.85018973	    -12.29866048	    -11.57696730	    -24.70343726	     15.21629613	      6.91190073	    -30.78428859	      2.07688699	     -7.90264085	    -25.26998885	     -7.10146519	      0.08819712	   -223.74570613	   -157.75368869	   -203.69701634	    128.14380408	    162.48361175	    -34.38338192	    -24.99999983	     76.86926850	    -47.46377406	     -9.47718832	    -26.98350791	    123.45307923	    171.93362525	    -74.43660215	    -23.46944358	     76.02144900
      3.48750000	     -0.58491399	      3.62705268	    -85.26022271	     -0.02304697	      1.78456833	      0.94454227	     11.56933399	     -3.27014835	    -18.43469442	    -10.55937792	    -22.33427794	      7.30975893	      3.19430362	     17.02153590	     -4.03097004	    -11.84647473	    -11.55526130	    -24.61941827	     15.23570721	      6.87715064	    -31.15796926	      2.43843080	     -8.01069928	    -25.51796070	     -7.03055326	     -0.14734451	   -223.82100440	   -157.81583646	   -204.14914282	    128.86780331	    162.15020375	    -32.72019127	    -24.99999983	     77.01671669	    -47.52629297	     -9.44080890	    -27.30037042	    124.23285292	    171.32741721	    -72.98124795	    -24.01556814	     77.00066186
      3.49000000	     -0.56898129	      3.56565684	    -85.27223359	     -0.02283341	      1.78190495	      0.94296460	     11.53128129	     -3.28063491	    -18.44797469	    -10.50350725	    -22.35072373	      7.32108602	      3.18891681	     17.01765450	     -4.03102077	    -11.86460127	    -11.52465901	    -24.64272764	     15.23569808	      6.87155594	    -31.04640957	      2.43053464	     -8.03471290	    -25.74769363	     -7.06781997	     -0.12680574	   -223.81721878	   -157.74542870	   -204.34044603	    129.27540856	    162.11102589	    -32.77547476	    -24.99999983	     77.00053695	    -47.48201630	     -9.40792164	    -27.46018857	    124.70251030	    171.24215444	    -73.07970086	    -24.00481438	     76.99702774
      3.49250000	     -0.57947005	      3.49149013	    -85.26027619	     -0.02289122	      1.77895323	      0.94177604	     11.45592004	     -3.27512633	    -18.44434280	    -10.45815906	    -22.37358659	      7.34117010	      3.18103364	     16.98591604	     -4.04807415	    -11.87510579	    -11.51402744	    -24.68790605	     15.22908595	      6.86273919	    -30.91247347	      2.42597142	     -8.07106481	    -26.03703018	     -7.08288954	     -0.11750627	   -223.88522549	   -157.75239270	   -204.59991261	    129.73112706	    162.05632987	    -32.82509160	    -24.99999983	     76.99184752	    -47.56786278	     -9.33392693	    -27.69102568	    125.20829346	    171.13784988	    -73.17562656	    -23.98794352	     77.01134126
      3.49500000	     -0.59164420	      3.40521410	    -85.24509127	     -0.02285163	      1.77609806	      0.94052712	     11.36867569	     -3.25715357	    -18.44030321	    -10.40991052	    -22.38304523	      7.36086286	      3.17394521	     16.95137396	     -4.07514853	    -11.87712073	    -11.50938556	    -24.73596814	     15.22216973	      6.85398087	    -30.78876805	      2.43916029	     -8.10535694	    -26.31140340	     -7.08741351	     -0.12148062	   -223.92638301	   -157.74014205	   -204.84951697	    130.15184918	    161.99610339	    -32.84907280	    -24.99999983	     76.99145358	    -47.62508208	     -9.27074567	    -27.90538322	    125.69385982	    171.04043946	    -73.23604553	    -23.98178993	     77.03934790
      3.49750000	     -0.62226734	      3.27764402	    -85.19214365	     -0.02291312	      1.77314587	      0.93948149	     11.21307374	     -3.21197422	    -18.43802886	    -10.36056908	    -22.38720579	      7.38949523	      3.16227342	     16.88989118	     -4.13302169	    -11.85798084	    -11.53129059	    -24.81582926	     15.21127553	      6.84062886	    -30.67647827	      2.46663561	     -8.13456570	    -26.62873449	     -7.06353871	     -0.14994317	   -224.03665317	   -157.77936078	   -205.15856825	    130.58504606	    161.89649352	    -32.80026243	    -24.99999983	     77.00837195	    -47.77526581	     -9.14860455	    -28.14721677	    126.21820219	    170.92374073	    -73.22947108	    -24.00987900	     77.12539056
